<svg xmlns="http://www.w3.org/2000/svg" width="32" height="32" viewBox="0 0 32 32" fill="none"><g clip-path="url(#clip0_830_6638)"><rect width="32" height="32" rx="6.90526" fill="url(#paint0_linear_830_6638)"></rect><g filter="url(#filter0_f_830_6638)"><circle cx="10.0861" cy="27.9835" r="11.2648" fill="#28B894" fill-opacity="0.4"></circle></g><g filter="url(#filter1_f_830_6638)"><circle cx="26.6723" cy="34.895" r="10.2963" fill="#28B894"></circle></g><path d="M24.4736 2.50224C24.7872 2.22094 24.8063 2.20926 25.0362 2.19546C25.4089 2.16822 25.7503 2.34741 26.3314 2.87637C27.6892 4.11019 29.5803 6.64682 30.7558 8.81306L31.2096 9.65385L31.8518 9.9732C32.4712 10.2862 33.4867 10.9279 33.9109 11.272C34.1027 11.4306 34.13 11.4338 34.3294 11.3562C35.2298 11.0056 36.5196 11.4703 37.6573 12.5618C38.6815 13.5434 39.6628 15.2201 40.0386 16.6199C40.0935 16.8452 40.1656 17.3298 40.1921 17.6905C40.2778 18.9568 39.8722 19.9685 39.0902 20.4264C38.9304 20.5186 38.9197 20.5434 38.9242 20.9417C38.9603 22.8383 38.4489 24.7316 37.4219 26.5778C36.2625 28.6509 34.1977 30.7958 31.4037 32.8162C29.9032 33.9081 26.3539 35.9762 24.7491 36.7022C20.9046 38.4331 17.8221 39.0965 15.145 38.7685C13.5483 38.5749 11.7415 37.9516 10.6721 37.2282C10.3906 37.0336 10.3455 37.0216 10.1305 37.0831C8.98558 37.412 7.48603 36.7359 6.21222 35.3219C5.70416 34.7565 4.88467 33.3691 4.61888 32.6266C4.00401 30.8887 4.1254 29.3203 4.94436 28.3837C5.15595 28.1425 5.16291 28.1326 5.11671 27.7272C5.04038 27.0631 5.00615 26.0799 5.04102 25.4457L5.06891 24.8533L4.17863 23.2801C2.80144 20.8296 1.92687 18.7717 1.58932 17.1996C1.41119 16.3377 1.42249 15.9551 1.64114 15.6721C1.77434 15.5012 2.21128 15.3234 2.73792 15.2261C4.06379 14.9934 6.95525 15.2039 10.1717 15.7718L10.5056 15.8305L11.2401 15.1809C12.459 14.1012 13.2686 13.4957 14.7613 12.5649C16.3172 11.5914 18.0733 10.7902 20.0507 10.1561L20.6856 9.95303L21.034 9.03695C22.2826 5.74089 23.5617 3.31103 24.4736 2.50224ZM14.0131 19.394C12.6022 20.2085 11.897 20.6164 11.3785 21.0729C9.27869 22.922 8.49391 25.8508 9.38789 28.502C9.60867 29.1567 10.0158 29.8629 10.8305 31.2742C11.6451 32.6851 12.053 33.3903 12.5095 33.9087C14.3585 36.0086 17.2873 36.7933 19.9386 35.8994C20.5931 35.6786 21.299 35.2718 22.7099 34.4572L30.8289 29.7697C32.2401 28.955 32.9458 28.5468 33.4643 28.0903C35.5641 26.2412 36.3489 23.3124 35.4549 20.6612C35.2342 20.0066 34.8273 19.3008 34.0128 17.8899C33.198 16.4787 32.7899 15.773 32.3333 15.2545C30.4843 13.1546 27.5555 12.3699 24.9042 13.2638C24.2496 13.4846 23.5433 13.8917 22.1321 14.7065L14.0131 19.394Z" fill="url(#paint1_linear_830_6638)"></path><rect x="14.7959" y="25.0674" width="3.20723" height="6.66117" rx="1.60361" transform="rotate(-30 14.7959 25.0674)" fill="white"></rect><rect x="23.4492" y="20.0713" width="3.20723" height="6.66117" rx="1.60361" transform="rotate(-30 23.4492 20.0713)" fill="white"></rect></g><defs><filter id="filter0_f_830_6638" x="-11.9327" y="5.96479" width="44.0372" height="44.0372" filterUnits="userSpaceOnUse" color-interpolation-filters="sRGB"><feFlood flood-opacity="0" result="BackgroundImageFix"></feFlood><feBlend mode="normal" in="SourceGraphic" in2="BackgroundImageFix" result="shape"></feBlend><feGaussianBlur stdDeviation="5.37698" result="effect1_foregroundBlur_830_6638"></feGaussianBlur></filter><filter id="filter1_f_830_6638" x="7.57568" y="15.7983" width="38.1934" height="38.1934" filterUnits="userSpaceOnUse" color-interpolation-filters="sRGB"><feFlood flood-opacity="0" result="BackgroundImageFix"></feFlood><feBlend mode="normal" in="SourceGraphic" in2="BackgroundImageFix" result="shape"></feBlend><feGaussianBlur stdDeviation="4.40015" result="effect1_foregroundBlur_830_6638"></feGaussianBlur></filter><linearGradient id="paint0_linear_830_6638" x1="16" y1="0" x2="16" y2="32" gradientUnits="userSpaceOnUse"><stop stop-color="#6C4DFF"></stop><stop offset="1" stop-color="#583ED3"></stop></linearGradient><linearGradient id="paint1_linear_830_6638" x1="13.3307" y1="8.86225" x2="28.3004" y2="34.7904" gradientUnits="userSpaceOnUse"><stop stop-color="white" stop-opacity="0.8"></stop><stop offset="0.437689" stop-color="white"></stop></linearGradient><clipPath id="clip0_830_6638"><rect width="32" height="32" rx="6.90526" fill="white"></rect></clipPath></defs></svg>